<svg id="Camada_1" data-name="Camada 1" xmlns="http://www.w3.org/2000/svg" viewBox="0 0 769.62 167.4"><defs><style>.cls-1{fill:#11286b;}.cls-2{fill:#ffbd00;}</style></defs><title>logo</title><path class="cls-1" d="M254.1,60.68A20.15,20.15,0,0,0,239,67.11q-6.18,6.44-6.19,17.54,0,14.67,10.61,21.26a20.67,20.67,0,0,0,11,3q8.07,0,12.89-4.36a24.16,24.16,0,0,0,3.72-4.2,8.25,8.25,0,0,1,9.6-3.23l.94.34a8.14,8.14,0,0,1,4.07,12.1,39.69,39.69,0,0,1-8,8.72q-9.14,7.45-23.26,7.46-17,0-28.49-11.75T214.41,84.65q0-17.78,11.35-29.37t28.18-11.59q14.44,0,23.57,7.47a36.44,36.44,0,0,1,7.74,8.54,8.5,8.5,0,0,1-4.36,12.48l-.69.25a8.62,8.62,0,0,1-10.15-3.6,21,21,0,0,0-3.33-3.94Q262.19,60.68,254.1,60.68Z"/><path class="cls-1" d="M339.5,43.69q17.46,0,28.82,11.59t11.35,29.37q0,17.79-11.35,29.45T339.5,125.77q-17.29,0-28.65-11.67T299.5,84.65q0-17.78,11.35-29.37T339.5,43.69Zm-15.32,59a21.19,21.19,0,0,0,30.64.08q6.27-6.51,6.27-18.1,0-11.43-6.27-17.86a21.47,21.47,0,0,0-30.64,0q-6.27,6.43-6.27,17.86T324.18,102.67Z"/><path class="cls-1" d="M406.65,123.39h0a9.2,9.2,0,0,1-9.2-9.21V17.66a9.2,9.2,0,0,1,9.2-9.21h0a9.21,9.21,0,0,1,9.21,9.21v96.52A9.21,9.21,0,0,1,406.65,123.39Z"/><path class="cls-1" d="M449,123.39h-.48a8.89,8.89,0,0,1-8.89-8.89V54.89a8.82,8.82,0,0,1,8.82-8.82h0a8.82,8.82,0,0,1,8.81,8.82v1A21.47,21.47,0,0,1,466.9,47a29.57,29.57,0,0,1,13.26-3.18,27.94,27.94,0,0,1,14,3.5,21.48,21.48,0,0,1,9.2,10.16q8.1-13.66,25.09-13.66a27.23,27.23,0,0,1,19.36,7.46q7.94,7.47,7.94,21.91V114.5a8.89,8.89,0,0,1-8.89,8.89h0a8.89,8.89,0,0,1-8.89-8.89V76.24q0-7.14-3.73-11.51T523,60.36a14.92,14.92,0,0,0-11.59,4.92A17.6,17.6,0,0,0,507,77.51v37a8.9,8.9,0,0,1-8.9,8.89h-.31a8.89,8.89,0,0,1-8.89-8.89V76.24q0-7.14-3.73-11.51T474,60.36q-7.31,0-11.66,4.85a17.64,17.64,0,0,0-4.37,12.3v37A8.89,8.89,0,0,1,449,123.39Z"/><path class="cls-1" d="M637.8,98.51h0a8.07,8.07,0,0,1,4.32,12.21,35.79,35.79,0,0,1-7.9,8.14q-9.12,6.92-22.46,6.91a38.55,38.55,0,0,1-28-11.27q-11.5-11.28-11.51-30.17,0-17.77,11.19-29.21t26.44-11.43q17.77,0,27.78,10.88t10,29.29q0,4.92-.48,5.87H590.65a20,20,0,0,0,6.42,14.45,20.75,20.75,0,0,0,14.69,5.71q11.49,0,16.78-8A8.14,8.14,0,0,1,637.8,98.51ZM591.12,76.24h37.94A17.92,17.92,0,0,0,623.9,64q-4.83-4.92-13.89-4.92-8.25,0-13.33,5.16A18.51,18.51,0,0,0,591.12,76.24Z"/><path class="cls-1" d="M674.24,55.06a20.77,20.77,0,0,1-7.85-1.47.82.82,0,0,0-1.14.74v59.92a9.13,9.13,0,1,0,18.25,0V54.3a.81.81,0,0,0-1.13-.74A21.58,21.58,0,0,1,674.24,55.06Z"/><path class="cls-1" d="M702.56,102.43q0-9.84,6.43-15.79T725.9,79.1l19.85-3c3.8-.53,5.71-2.38,5.71-5.56A10.85,10.85,0,0,0,747.81,62q-3.66-3.26-11-3.25-7,0-11.11,3.88a15.12,15.12,0,0,0-3,4A8.51,8.51,0,0,1,713.27,71h0a8.55,8.55,0,0,1-5.45-12.8,29.84,29.84,0,0,1,6.33-7.12q8.9-7.39,22.55-7.39,16.81,0,24.84,8.1t8,20.8V111q0,1.91.06,3.63a8.5,8.5,0,0,1-8.52,8.76h0a8.53,8.53,0,0,1-8.52-8.46c0-.45,0-.91,0-1.38q-7.62,12.23-23.81,12.22-11.75,0-19-6.91A22,22,0,0,1,702.56,102.43Zm29.69,8.89q8.58,0,13.89-4.68t5.32-15.32V87.83l-20.16,3Q721,92.6,721,101.32a9.49,9.49,0,0,0,3,7.07C726,110.35,728.76,111.32,732.25,111.32Z"/><path class="cls-2" d="M665.89,42.52a11.46,11.46,0,0,1-3.49-8.41,11.74,11.74,0,0,1,3.49-8.5A11.34,11.34,0,0,1,674.3,22a11.92,11.92,0,0,1,12.07,12.07,11.49,11.49,0,0,1-3.49,8.41A11.66,11.66,0,0,1,674.3,46,11.46,11.46,0,0,1,665.89,42.52Z"/><path class="cls-1" d="M82.42,78.72,66.48,51.11a10,10,0,0,0-8.66-5H25.94a10,10,0,0,0-8.66,5L1.34,78.72a10,10,0,0,0,0,10l15.94,27.61a10,10,0,0,0,8.66,5H57.82a10,10,0,0,0,8.66-5L82.42,88.72A10,10,0,0,0,82.42,78.72Z"/><path class="cls-2" d="M97,70.22a10,10,0,0,0,8.66,5h31.88a10,10,0,0,0,8.66-5l16-27.61a10,10,0,0,0,0-10L146.23,5a10,10,0,0,0-8.66-5H105.69A10,10,0,0,0,97,5L81.09,32.61a10,10,0,0,0,0,10Z"/><path class="cls-2" d="M146.23,97.18a10,10,0,0,0-8.66-5H105.69a10,10,0,0,0-8.66,5L81.09,124.79a10,10,0,0,0,0,10L97,162.4a10,10,0,0,0,8.66,5h31.88a10,10,0,0,0,8.66-5l16-27.61a10,10,0,0,0,0-10Z"/></svg>